<svg width="48" height="47" viewBox="0 0 48 47" fill="none" xmlns="http://www.w3.org/2000/svg">
<g id="ic:baseline-telegram">
<path id="Vector" d="M23.811 3.83777C13.0581 3.83777 4.33105 12.4343 4.33105 23.0264C4.33105 33.6185 13.0581 42.215 23.811 42.215C34.5639 42.215 43.2909 33.6185 43.2909 23.0264C43.2909 12.4343 34.5639 3.83777 23.811 3.83777ZM32.8497 16.886C32.5575 19.9178 31.2913 27.2862 30.6484 30.6826C30.3757 32.1218 29.8303 32.6015 29.3238 32.659C28.194 32.755 27.3368 31.9299 26.246 31.2199C24.5317 30.107 23.5577 29.4162 21.9019 28.3416C19.9734 27.0943 21.2201 26.4036 22.3305 25.2906C22.6227 25.0028 27.6096 20.5318 27.707 20.1289C27.7205 20.0679 27.7187 20.0045 27.7017 19.9443C27.6847 19.8841 27.6531 19.8289 27.6096 19.7835C27.4927 19.6876 27.3368 19.7259 27.2005 19.7451C27.0252 19.7835 24.298 21.568 18.98 25.0987C18.2008 25.6168 17.4995 25.8855 16.8761 25.8663C16.1748 25.8471 14.8502 25.4825 13.8567 25.1563C12.6295 24.7725 11.675 24.5615 11.7529 23.8899C11.7919 23.5445 12.2789 23.1991 13.1944 22.8345C18.8826 20.3975 22.6617 18.7857 24.5512 18.0181C29.9666 15.7923 31.077 15.4085 31.8172 15.4085C31.9731 15.4085 32.3432 15.4469 32.5769 15.6388C32.7717 15.7923 32.8302 16.0033 32.8497 16.1568C32.8302 16.272 32.8691 16.6174 32.8497 16.886Z" fill="black"/>
</g>
</svg>
