<svg width="250" height="50" viewBox="0 0 250 50" fill="none" xmlns="http://www.w3.org/2000/svg">
<g id="Vector">
<path d="M23.9637 44.6071C24.4701 44.878 24.9765 44.878 25.4829 44.6071L47.0013 33.0567C48.4927 32.249 49.0997 32.5124 48.8222 33.8468L48.2915 36.3374C48.0185 37.6575 47.031 38.8477 45.5445 39.6483L27.4704 49.3552C26.6999 49.7687 25.7676 49.9945 24.8082 49.9999C23.8487 50.0053 22.9117 49.7901 22.1324 49.3853C16.1111 46.2601 9.89566 42.9191 3.48594 39.3624C2.54252 38.8407 1.80374 37.7972 1.2696 36.2321C1.19329 35.9963 1.01987 35.8082 0.749328 35.6677C0.242933 35.4069 -0.00679631 35.0006 0.000140613 34.4487C0.0695098 28.148 0.0937888 21.8448 0.072978 15.5391C0.072978 15.1679 0.274149 14.8945 0.676491 14.7189C0.804926 14.6618 0.916243 14.5864 1.00383 14.4972C1.09142 14.408 1.15349 14.3069 1.18635 14.1997C1.665 12.6195 2.72635 11.3679 4.3704 10.4449C9.11526 7.77609 15.4487 4.39247 23.3706 0.294001C23.7211 0.112228 24.1382 0.0100956 24.5683 0.000710389C24.9984 -0.00867487 25.422 0.0751153 25.7847 0.241328L29.2601 1.8441C29.9399 2.15512 29.9572 2.4837 29.3121 2.82983L7.30472 14.6286C6.57634 15.0199 6.21215 15.5441 6.21215 16.2013L6.23297 34.6519C6.23282 34.7873 6.27607 34.9205 6.35921 35.0407C6.44235 35.161 6.56307 35.2649 6.71161 35.3442L23.9637 44.6071Z" fill="white"/>
<path d="M23.9637 20.671C24.1266 20.7886 24.3428 20.86 24.5735 20.8724C24.8043 20.8848 25.0345 20.8374 25.2228 20.7387L45.5965 9.82031C45.6632 9.78447 45.7425 9.76311 45.8254 9.75872C45.9082 9.75432 45.991 9.76709 46.0642 9.79551C46.1373 9.82394 46.1978 9.86684 46.2384 9.91921C46.2791 9.97158 46.2982 10.0312 46.2937 10.0912C46.1272 12.0075 44.9757 13.6203 42.8391 14.9296C37.4214 18.2355 32.125 21.4535 26.9501 24.5838C25.417 25.5119 24.0366 25.4015 22.8087 24.2527C20.8387 22.4017 18.8686 20.5556 16.8985 18.7145C15.8892 17.7739 15.91 16.8559 15.9724 15.7648C16.0071 15.1879 16.3054 15.1027 16.8673 15.509L23.9637 20.671Z" fill="white"/>
<path d="M145.802 29.035C145.796 30.1845 145.16 31.2853 144.032 32.0953C142.904 32.9053 141.377 33.3581 139.788 33.3541L139.101 33.3524C138.314 33.3504 137.535 33.2363 136.809 33.0167C136.083 32.797 135.423 32.4761 134.869 32.0722C134.314 31.6683 133.875 31.1894 133.576 30.6628C133.278 30.1362 133.125 29.5722 133.128 29.003L133.167 21.0118C133.172 19.8623 133.809 18.7615 134.937 17.9515C136.065 17.1415 137.592 16.6887 139.181 16.6927L139.868 16.6944C140.655 16.6964 141.434 16.8105 142.16 17.0301C142.886 17.2498 143.545 17.5707 144.1 17.9746C144.654 18.3785 145.094 18.8574 145.392 19.384C145.691 19.9106 145.843 20.4746 145.84 21.0438L145.802 29.035ZM142.361 21.8779C142.364 21.3431 142.072 20.8294 141.551 20.4499C141.03 20.0704 140.322 19.8562 139.582 19.8543L139.332 19.8536C138.966 19.8527 138.603 19.9039 138.265 20.0044C137.926 20.1049 137.618 20.2527 137.358 20.4393C137.098 20.6259 136.891 20.8477 136.75 21.092C136.609 21.3363 136.535 21.5984 136.534 21.8632L136.503 28.214C136.501 28.7489 136.792 29.2625 137.313 29.642C137.835 30.0215 138.543 30.2358 139.282 30.2377L139.532 30.2383C139.898 30.2393 140.261 30.188 140.6 30.0875C140.939 29.987 141.247 29.8393 141.507 29.6527C141.767 29.466 141.973 29.2442 142.115 28.9999C142.256 28.7556 142.329 28.4935 142.33 28.2287L142.361 21.8779Z" fill="white"/>
<path d="M159.078 27.0476L157.538 27.0325C157.066 27.0275 156.834 26.8544 156.84 26.5133L156.872 24.444C156.872 24.1681 157.059 24.0301 157.434 24.0301H162.626C162.903 24.0301 163.059 24.1305 163.094 24.3311C163.406 26.3578 163.306 28.1336 162.792 29.6586C160.888 35.2947 150.514 34.2788 150.223 28.9212C150.028 25.3344 150.035 22.8287 150.243 21.404C151.128 15.2413 161.232 14.9929 162.917 20.9601C162.987 21.2109 162.851 21.3789 162.511 21.4642C160.722 21.9006 159.435 21.6147 158.651 20.6064C158.5 20.4117 158.295 20.2418 158.048 20.1074C157.802 19.9729 157.519 19.8769 157.218 19.8253C156.917 19.7737 156.604 19.7677 156.299 19.8076C155.994 19.8475 155.704 19.9324 155.446 20.0571C152.762 21.3589 153.688 26.3177 153.771 28.4095C153.783 28.6855 153.879 28.9562 154.053 29.202C154.226 29.4479 154.472 29.6628 154.774 29.8312C155.076 29.9997 155.425 30.1174 155.797 30.1761C156.168 30.2347 156.553 30.2328 156.924 30.1703C158.818 29.8543 159.723 28.9438 159.64 27.4388C159.626 27.183 159.438 27.0526 159.078 27.0476Z" fill="white"/>
<path d="M73.6182 20.2452L73.7015 32.9695C73.7015 33.0673 73.6477 33.1611 73.5521 33.2302C73.4565 33.2994 73.3268 33.3382 73.1916 33.3382L70.6215 33.3608C70.5528 33.3618 70.4845 33.3528 70.4207 33.3342C70.3569 33.3157 70.299 33.288 70.2504 33.2529C70.2018 33.2177 70.1636 33.1758 70.1379 33.1297C70.1123 33.0836 70.0998 33.0342 70.1012 32.9845L70.1844 20.1925C70.1845 20.1434 70.1709 20.0949 70.1447 20.0496C70.1184 20.0044 70.0799 19.9634 70.0314 19.9291C69.983 19.8948 69.9256 19.8678 69.8625 19.8497C69.7994 19.8316 69.732 19.8228 69.6642 19.8238L65.9078 19.8689C65.84 19.8699 65.7726 19.8611 65.7095 19.8431C65.6465 19.825 65.589 19.798 65.5406 19.7637C65.4921 19.7293 65.4536 19.6883 65.4273 19.6431C65.4011 19.5979 65.3875 19.5493 65.3876 19.5002L65.3668 17.1525C65.3668 17.0547 65.4205 16.9609 65.5161 16.8918C65.6117 16.8227 65.7414 16.7838 65.8766 16.7838H77.9989C78.0676 16.7838 78.1357 16.7938 78.1989 16.8132C78.2622 16.8327 78.3194 16.8612 78.367 16.8971C78.4146 16.9329 78.4517 16.9754 78.4761 17.0218C78.5005 17.0683 78.5116 17.1179 78.5088 17.1676L78.4151 19.4852C78.4124 19.5817 78.3575 19.6735 78.2621 19.7411C78.1668 19.8086 78.0387 19.8464 77.9052 19.8464L74.1281 19.8689C74.0602 19.8689 73.9931 19.8787 73.9305 19.8977C73.868 19.9167 73.8113 19.9445 73.7638 19.9796C73.7163 20.0146 73.679 20.0562 73.654 20.1018C73.629 20.1474 73.6168 20.1961 73.6182 20.2452Z" fill="white"/>
<path d="M85.2618 27.0325L85.3139 29.8618C85.3166 29.9583 85.3715 30.0501 85.4668 30.1177C85.5622 30.1852 85.6903 30.223 85.8237 30.223L93.3468 30.2004C93.4803 30.2004 93.6084 30.2382 93.7037 30.3057C93.799 30.3732 93.854 30.4651 93.8567 30.5616L93.8983 32.977C93.8997 33.0261 93.8875 33.0748 93.8625 33.1204C93.8375 33.166 93.8002 33.2076 93.7527 33.2426C93.7052 33.2777 93.6485 33.3055 93.586 33.3245C93.5235 33.3435 93.4563 33.3533 93.3885 33.3533L82.4212 33.3457C82.286 33.3457 82.1563 33.3069 82.0607 33.2377C81.965 33.1686 81.9113 33.0748 81.9113 32.977L81.9009 17.1525C81.9009 17.0547 81.9546 16.9609 82.0502 16.8918C82.1459 16.8227 82.2756 16.7838 82.4108 16.7838H93.4093C93.5445 16.7838 93.6742 16.8227 93.7698 16.8918C93.8654 16.9609 93.9191 17.0547 93.9191 17.1525L93.8775 19.4852C93.8775 19.583 93.8238 19.6768 93.7282 19.7459C93.6325 19.8151 93.5029 19.8539 93.3676 19.8539L85.7821 19.8464C85.7143 19.8464 85.6471 19.8561 85.5846 19.8751C85.522 19.8941 85.4653 19.922 85.4179 19.957C85.3704 19.9921 85.333 20.0336 85.308 20.0792C85.283 20.1248 85.2709 20.1736 85.2722 20.2226L85.3347 23.1798C85.336 23.2282 85.3506 23.276 85.3774 23.3204C85.4043 23.3647 85.443 23.4048 85.4913 23.4384C85.5397 23.4719 85.5966 23.4982 85.659 23.5158C85.7214 23.5335 85.788 23.542 85.855 23.541L91.9421 23.4883C92.0099 23.4873 92.0773 23.4961 92.1404 23.5142C92.2035 23.5323 92.2609 23.5593 92.3094 23.5936C92.3578 23.628 92.3963 23.669 92.4226 23.7142C92.4489 23.7594 92.4624 23.808 92.4624 23.8571L92.452 26.2951C92.452 26.3929 92.3983 26.4866 92.3026 26.5558C92.207 26.6249 92.0773 26.6638 91.9421 26.6638L85.7717 26.6563C85.7039 26.6562 85.6367 26.666 85.5742 26.685C85.5116 26.704 85.4549 26.7319 85.4075 26.7669C85.36 26.8019 85.3226 26.8435 85.2976 26.8891C85.2726 26.9347 85.2605 26.9834 85.2618 27.0325Z" fill="white"/>
<path d="M103.815 21.6147L106.551 16.9795C106.578 16.9348 106.621 16.8965 106.676 16.8686C106.732 16.8407 106.796 16.8244 106.863 16.8214L109.86 16.686C109.922 16.6835 109.984 16.6925 110.04 16.7123C110.096 16.732 110.144 16.7618 110.18 16.7988C110.215 16.8358 110.237 16.8787 110.243 16.9235C110.249 16.9683 110.239 17.0135 110.214 17.0547L105.292 24.7826C105.269 24.8179 105.257 24.8564 105.257 24.8955C105.257 24.9345 105.269 24.9731 105.292 25.0083L110.505 33.0297C110.532 33.0706 110.544 33.1159 110.54 33.1611C110.535 33.2064 110.515 33.25 110.48 33.2878C110.446 33.3257 110.398 33.3564 110.343 33.3771C110.287 33.3978 110.225 33.4077 110.162 33.4059L107.29 33.3307C107.221 33.3291 107.154 33.3135 107.097 33.2855C107.04 33.2575 106.995 33.2184 106.967 33.1727L103.804 28.1386C103.776 28.092 103.729 28.0524 103.67 28.0246C103.611 27.9967 103.542 27.9819 103.471 27.9819C103.401 27.9819 103.332 27.9967 103.273 28.0246C103.214 28.0524 103.167 28.092 103.138 28.1386L100.027 33.1727C99.9995 33.2184 99.9546 33.2575 99.8975 33.2855C99.8404 33.3135 99.7735 33.3291 99.7045 33.3307L96.8326 33.3984C96.77 33.4002 96.7078 33.3903 96.652 33.3696C96.5962 33.3489 96.5487 33.3182 96.5142 33.2803C96.4797 33.2425 96.4592 33.1988 96.4549 33.1536C96.4505 33.1084 96.4623 33.0631 96.4893 33.0222L101.619 24.9933C101.642 24.958 101.654 24.9195 101.654 24.8804C101.654 24.8414 101.642 24.8028 101.619 24.7675L96.687 17.0923C96.66 17.0514 96.6482 17.0061 96.6526 16.9609C96.6569 16.9157 96.6774 16.872 96.7119 16.8342C96.7464 16.7963 96.7939 16.7656 96.8497 16.7449C96.9055 16.7242 96.9677 16.7143 97.0303 16.7161L99.8606 16.7838C99.9295 16.7854 99.9965 16.801 100.054 16.829C100.111 16.857 100.156 16.8961 100.183 16.9418L103.149 21.6222C103.178 21.6685 103.226 21.7076 103.285 21.7348C103.345 21.7619 103.415 21.776 103.485 21.7752C103.556 21.7744 103.624 21.7588 103.683 21.7303C103.741 21.7018 103.787 21.6616 103.815 21.6147Z" fill="white"/>
<path d="M124.719 27.8377C124.934 27.6119 125 27.3235 124.917 26.9723C124.209 24.0076 124.657 20.1775 124.698 17.2504C124.7 17.1861 124.718 17.1227 124.754 17.0638C124.789 17.0048 124.84 16.9514 124.904 16.9067C124.967 16.862 125.043 16.8268 125.125 16.8031C125.208 16.7795 125.296 16.7678 125.385 16.7688L127.331 16.7914C127.507 16.7914 127.677 16.8421 127.802 16.9324C127.927 17.0227 127.997 17.1452 127.997 17.2729L127.976 32.8642C127.976 33.1852 127.754 33.3458 127.31 33.3458L124.428 33.3382C123.984 33.3382 123.682 33.1852 123.522 32.8792L118.944 24.0452C117.973 22.1791 117.494 22.2418 117.508 24.2333L117.581 33.0523C117.581 33.1301 117.538 33.2048 117.462 33.2598C117.386 33.3148 117.283 33.3458 117.175 33.3458H114.688C114.636 33.3458 114.585 33.3384 114.537 33.324C114.489 33.3096 114.445 33.2886 114.409 33.262C114.372 33.2355 114.343 33.2039 114.323 33.1692C114.303 33.1345 114.293 33.0974 114.293 33.0598L114.262 17.2278C114.262 16.9368 114.463 16.7914 114.865 16.7914L117.862 16.7838C118.278 16.7838 118.559 16.9243 118.705 17.2052L124.116 27.7775C124.268 28.0734 124.469 28.0935 124.719 27.8377Z" fill="white"/>
<path d="M176.267 30.6293L171.106 30.6369C170.914 30.637 170.728 30.6827 170.576 30.767C170.423 30.8513 170.314 30.9695 170.263 31.1034L169.566 32.8943C169.434 33.2203 169.136 33.3809 168.671 33.3759L166.226 33.3533C165.872 33.3483 165.747 33.2254 165.852 32.9846L172.334 17.2428C172.438 16.982 172.674 16.8189 173.042 16.7537C173.472 16.6685 173.902 16.7011 174.332 16.8516C174.644 16.9669 174.849 17.1475 174.946 17.3933L181.418 33.0899C181.501 33.2906 181.401 33.3884 181.116 33.3834L178.411 33.3458C177.995 33.3407 177.731 33.1902 177.62 32.8943L176.964 31.0281C176.874 30.7623 176.642 30.6293 176.267 30.6293ZM171.751 27.2432C171.737 27.289 171.737 27.3365 171.752 27.3821C171.767 27.4278 171.797 27.4704 171.838 27.5066C171.879 27.5429 171.931 27.5719 171.99 27.5915C172.049 27.611 172.113 27.6206 172.178 27.6194L175.102 27.5969C175.166 27.5969 175.229 27.5865 175.287 27.5664C175.344 27.5464 175.395 27.5172 175.435 27.4811C175.475 27.445 175.503 27.4028 175.518 27.3577C175.532 27.3126 175.532 27.2658 175.518 27.2206L173.999 22.7284C173.977 22.6602 173.923 22.5996 173.846 22.5565C173.77 22.5134 173.675 22.4904 173.579 22.4913C173.482 22.4921 173.388 22.5168 173.313 22.5613C173.238 22.6058 173.187 22.6673 173.167 22.7359L171.751 27.2432Z" fill="white"/>
<path d="M194.706 27.0175L198.628 33.2254C198.639 33.244 198.644 33.2643 198.641 33.2843C198.639 33.3043 198.63 33.3234 198.616 33.3399C198.601 33.3564 198.582 33.3697 198.558 33.3786C198.535 33.3875 198.509 33.3918 198.483 33.3909L194.914 33.3457C194.699 33.3407 194.543 33.2655 194.446 33.12C193.232 31.1786 192.045 29.1971 190.887 27.1755C190.533 26.5685 189.843 26.4681 188.816 26.8745C188.608 26.9547 188.508 27.0802 188.514 27.2507L188.629 32.8566C188.636 33.1877 188.407 33.3558 187.942 33.3608L185.601 33.3759C185.317 33.3759 185.174 33.2755 185.174 33.0749V17.2278C185.174 17.106 185.24 16.9893 185.357 16.9032C185.474 16.8171 185.633 16.7688 185.799 16.7688C189.337 16.7688 195.278 15.8432 197.036 18.8606C198.833 21.9358 198.112 24.4766 194.872 26.4832C194.636 26.6337 194.581 26.8118 194.706 27.0175ZM188.535 20.2527L188.556 23.2024C188.556 23.3142 188.617 23.4214 188.727 23.5004C188.836 23.5794 188.984 23.6238 189.139 23.6238L192.271 23.6163C192.551 23.6153 192.828 23.5727 193.086 23.4909C193.345 23.409 193.579 23.2896 193.776 23.1394C193.973 22.9891 194.129 22.8111 194.235 22.6153C194.341 22.4195 194.395 22.2099 194.394 21.9985V21.4266C194.391 20.9995 194.163 20.5908 193.761 20.2902C193.359 19.9896 192.816 19.8219 192.25 19.8238L189.118 19.8313C188.963 19.8313 188.815 19.8757 188.706 19.9548C188.597 20.0338 188.535 20.141 188.535 20.2527Z" fill="white"/>
<path d="M205.111 31.1184L204.518 32.8943C204.478 33.0191 204.382 33.1307 204.244 33.2112C204.107 33.2917 203.935 33.3364 203.758 33.3382L201.178 33.3909C200.762 33.4009 200.612 33.2605 200.73 32.9695C202.86 27.9581 204.962 22.8739 207.036 17.7169C207.223 17.2454 207.511 16.9419 207.9 16.8064C208.302 16.671 208.732 16.6609 209.19 16.7763C209.509 16.8616 209.714 17.0196 209.804 17.2504L216.401 33.2479C216.436 33.3232 216.397 33.3608 216.286 33.3608L213.092 33.3533C213.011 33.3536 212.933 33.3345 212.869 33.2991C212.805 33.2637 212.759 33.214 212.738 33.1576L211.937 31.0432C211.89 30.924 211.79 30.8191 211.653 30.7445C211.516 30.6698 211.349 30.6294 211.177 30.6293L205.954 30.6369C205.496 30.6369 205.215 30.7974 205.111 31.1184ZM206.589 27.2056C206.573 27.2506 206.572 27.2976 206.584 27.3431C206.597 27.3886 206.624 27.4314 206.663 27.4683C206.702 27.5052 206.752 27.5352 206.81 27.5562C206.867 27.5772 206.93 27.5885 206.994 27.5893L209.981 27.6194C210.046 27.6206 210.11 27.611 210.169 27.5915C210.228 27.5719 210.28 27.5429 210.321 27.5066C210.362 27.4704 210.391 27.4278 210.406 27.3821C210.421 27.3365 210.422 27.289 210.407 27.2432L208.982 22.7735C208.958 22.7083 208.905 22.6506 208.832 22.6091C208.758 22.5676 208.668 22.5447 208.575 22.5439C208.482 22.543 208.39 22.5643 208.316 22.6044C208.241 22.6445 208.186 22.7013 208.16 22.766L206.589 27.2056Z" fill="white"/>
<path d="M223.164 22.322L223.383 33.0297C223.39 33.2404 223.248 33.3457 222.956 33.3457H220.438C220.385 33.3457 220.332 33.3383 220.283 33.324C220.234 33.3096 220.189 33.2885 220.151 33.262C220.114 33.2354 220.084 33.2039 220.063 33.1692C220.043 33.1345 220.032 33.0973 220.032 33.0598L220.043 17.1676C220.043 16.9117 220.216 16.7838 220.563 16.7838L223.539 16.7763C223.758 16.776 223.972 16.8243 224.151 16.9145C224.329 17.0048 224.465 17.1326 224.538 17.2804L229.376 26.7917C230.174 28.3619 230.556 28.3117 230.521 26.6412L230.355 17.2804C230.348 16.9343 230.587 16.7612 231.072 16.7612L233.174 16.7688C233.618 16.7738 233.84 16.9343 233.84 17.2503V32.9243C233.84 33.0361 233.779 33.1433 233.67 33.2223C233.56 33.3013 233.412 33.3457 233.258 33.3457H230.292C229.876 33.3457 229.588 33.2053 229.428 32.9243C227.868 30.2405 226.463 27.5266 225.214 24.7826C224.798 23.8796 224.222 23.0343 223.487 22.2468C223.265 22.016 223.157 22.0411 223.164 22.322Z" fill="white"/>
<path d="M244.88 20.2L244.891 32.9921C244.891 33.0395 244.878 33.0865 244.853 33.1303C244.828 33.1741 244.791 33.2139 244.745 33.2475C244.698 33.281 244.643 33.3076 244.583 33.3258C244.522 33.3439 244.457 33.3533 244.391 33.3533L241.967 33.3758C241.901 33.3758 241.836 33.3665 241.776 33.3483C241.715 33.3302 241.66 33.3036 241.614 33.27C241.567 33.2365 241.531 33.1967 241.505 33.1529C241.48 33.109 241.467 33.0621 241.467 33.0146L241.488 20.2226C241.488 20.1268 241.436 20.0349 241.342 19.9672C241.248 19.8995 241.121 19.8614 240.989 19.8614L237.087 19.8464C236.954 19.8464 236.827 19.8083 236.734 19.7406C236.64 19.6728 236.587 19.581 236.587 19.4852L236.567 17.145C236.567 17.0492 236.619 16.9573 236.713 16.8896C236.806 16.8219 236.934 16.7838 237.066 16.7838H249.5C249.567 16.7838 249.633 16.7934 249.694 16.812C249.755 16.8306 249.811 16.8579 249.857 16.8922C249.904 16.9266 249.94 16.9673 249.965 17.012C249.989 17.0567 250.001 17.1045 250 17.1525L249.958 19.5002C249.956 19.5947 249.902 19.6847 249.808 19.7508C249.715 19.8169 249.589 19.8539 249.459 19.8539L245.38 19.8388C245.247 19.8388 245.12 19.8769 245.027 19.9446C244.933 20.0124 244.88 20.1042 244.88 20.2Z" fill="white"/>
<path d="M23.9429 32.7181C24.1145 32.8414 24.3402 32.9169 24.579 32.9307C24.8177 32.9446 25.0536 32.8958 25.2436 32.7933L45.5029 21.9276C46.0717 21.6266 46.3353 21.7294 46.2937 22.2361C46.1549 23.9216 45.104 25.384 43.1409 26.623C37.6815 30.0794 32.243 33.4555 26.8252 36.7513C25.3962 37.6192 24.1094 37.5213 22.9648 36.4578C21.0225 34.6569 19.101 32.866 17.2002 31.0852C15.91 29.8662 15.8579 29.0008 15.962 27.5636C15.9897 27.1773 16.1944 27.1197 16.5759 27.3905L23.9429 32.7181Z" fill="white"/>
</g>
</svg>
