<svg width="48" height="47" viewBox="0 0 48 47" fill="none" xmlns="http://www.w3.org/2000/svg">
<g id="mdi:youtube">
<path id="Vector" d="M20.104 28.7828L30.214 23.0263L20.104 17.2697V28.7828ZM42.6227 13.7582C42.876 14.66 43.0513 15.8689 43.1682 17.404C43.3045 18.9391 43.363 20.2631 43.363 21.4144L43.4799 23.0263C43.4799 27.2286 43.1682 30.3179 42.6227 32.2943C42.1357 34.0213 41.0059 35.1343 39.2527 35.614C38.3372 35.8634 36.6619 36.0361 34.0905 36.1513C31.5581 36.2856 29.24 36.3431 27.0972 36.3431L23.9999 36.4583C15.8379 36.4583 10.7536 36.1513 8.74716 35.614C6.99397 35.1343 5.86413 34.0213 5.37714 32.2943C5.1239 31.3925 4.94858 30.1836 4.8317 28.6485C4.69534 27.1134 4.6369 25.7894 4.6369 24.6381L4.52002 23.0263C4.52002 18.824 4.8317 15.7346 5.37714 13.7582C5.86413 12.0312 6.99397 10.9183 8.74716 10.4385C9.66272 10.1891 11.338 10.0164 13.9093 9.90126C16.4417 9.76694 18.7598 9.70937 20.9026 9.70937L23.9999 9.59424C32.162 9.59424 37.2463 9.90126 39.2527 10.4385C41.0059 10.9183 42.1357 12.0312 42.6227 13.7582Z" fill="black"/>
</g>
</svg>
