<svg width="47" height="47" viewBox="0 0 47 47" fill="none" xmlns="http://www.w3.org/2000/svg">
<g id="mdi:instagram">
<path id="Vector" d="M15.1943 3.83777H31.5575C37.7911 3.83777 42.8558 8.8268 42.8558 14.9672V31.0856C42.8558 34.0373 41.6655 36.8681 39.5466 38.9552C37.4278 41.0424 34.554 42.215 31.5575 42.215H15.1943C8.96077 42.215 3.896 37.2259 3.896 31.0856V14.9672C3.896 12.0155 5.08635 9.18466 7.20521 7.09749C9.32406 5.01033 12.1978 3.83777 15.1943 3.83777ZM14.8047 7.67549C12.9448 7.67549 11.1611 8.40328 9.84597 9.69876C8.53082 10.9942 7.79198 12.7513 7.79198 14.5834V31.4693C7.79198 35.2879 10.9282 38.3772 14.8047 38.3772H31.9471C33.807 38.3772 35.5907 37.6495 36.9059 36.354C38.221 35.0585 38.9598 33.3014 38.9598 31.4693V14.5834C38.9598 10.7649 35.8236 7.67549 31.9471 7.67549H14.8047ZM33.6029 10.5538C34.2487 10.5538 34.868 10.8065 35.3247 11.2563C35.7813 11.7061 36.0379 12.3162 36.0379 12.9524C36.0379 13.5885 35.7813 14.1986 35.3247 14.6484C34.868 15.0982 34.2487 15.3509 33.6029 15.3509C32.9571 15.3509 32.3377 15.0982 31.8811 14.6484C31.4244 14.1986 31.1679 13.5885 31.1679 12.9524C31.1679 12.3162 31.4244 11.7061 31.8811 11.2563C32.3377 10.8065 32.9571 10.5538 33.6029 10.5538ZM23.3759 13.4321C25.9591 13.4321 28.4365 14.4429 30.2631 16.2422C32.0897 18.0415 33.1159 20.4818 33.1159 23.0264C33.1159 25.5709 32.0897 28.0113 30.2631 29.8106C28.4365 31.6098 25.9591 32.6207 23.3759 32.6207C20.7927 32.6207 18.3153 31.6098 16.4887 29.8106C14.6621 28.0113 13.636 25.5709 13.636 23.0264C13.636 20.4818 14.6621 18.0415 16.4887 16.2422C18.3153 14.4429 20.7927 13.4321 23.3759 13.4321ZM23.3759 17.2698C21.826 17.2698 20.3396 17.8763 19.2436 18.9558C18.1476 20.0354 17.5319 21.4996 17.5319 23.0264C17.5319 24.5531 18.1476 26.0173 19.2436 27.0969C20.3396 28.1765 21.826 28.7829 23.3759 28.7829C24.9258 28.7829 26.4123 28.1765 27.5082 27.0969C28.6042 26.0173 29.2199 24.5531 29.2199 23.0264C29.2199 21.4996 28.6042 20.0354 27.5082 18.9558C26.4123 17.8763 24.9258 17.2698 23.3759 17.2698Z" fill="black"/>
</g>
</svg>
